<?xml version="1.0" encoding="utf-8"?>
<!-- Generator: Adobe Illustrator 25.2.0, SVG Export Plug-In . SVG Version: 6.00 Build 0)  -->
<svg version="1.1" id="Calque_1" xmlns="http://www.w3.org/2000/svg" xmlns:xlink="http://www.w3.org/1999/xlink" x="0px" y="0px"
	 viewBox="0 0 283.5 72.1" style="enable-background:new 0 0 283.5 72.1;" xml:space="preserve">
<style type="text/css">
	.st0{fill:#FFFFFF;}
	.st1{fill:url(#SVGID_1_);}
	.st2{fill:url(#SVGID_2_);}
	.st3{fill:#2855A2;}
	.st4{fill:url(#SVGID_3_);}
	.st5{fill:url(#SVGID_4_);}
	.st6{fill:url(#SVGID_5_);}
	.st7{fill:url(#SVGID_6_);}
	.st8{fill:url(#SVGID_7_);}
	.st9{fill:url(#SVGID_8_);}
	.st10{fill:url(#SVGID_9_);}
	.st11{fill:url(#SVGID_10_);}
	.st12{fill:url(#SVGID_11_);}
</style>
<g>
	<path class="st0" d="M10.4,35.6h-8V24.2h8v-6.3c0-10.8,6.8-17.3,16.3-17.3c3.6,0,6.9,0.8,9.2,2.1l-2.6,9.5c-1-0.7-2.4-1.2-4.1-1.2
		c-3.6,0-6,2.5-6,7v6.3H33v11.4h-9.8v34.6H10.4V35.6z"/>
	<rect x="43.8" y="1.6" class="st0" width="12.7" height="68.6"/>
	<path class="st0" d="M67.2,45.3c0-14.1,9.6-26,25.5-26c16,0,25.6,11.9,25.6,26c0,14.2-9.6,26.1-25.6,26.1
		C76.9,71.5,67.2,59.5,67.2,45.3z M105.2,45.3c0-7.7-4.5-14.4-12.4-14.4c-7.9,0-12.3,6.7-12.3,14.4c0,7.8,4.4,14.5,12.3,14.5
		C100.7,59.8,105.2,53.2,105.2,45.3z"/>
	<path class="st0" d="M227.7,9.4c0-4.3,3.5-7.8,7.6-7.8c4.2,0,7.6,3.5,7.6,7.8c0,4.3-3.4,7.8-7.6,7.8
		C231.2,17.3,227.7,13.8,227.7,9.4z M229,23.7h12.7v46.5H229V23.7z"/>
	<path class="st0" d="M256.8,57.9V35.1h-8V23.7h8V7h12.8v16.7h9.8v11.4h-9.8v19.3c0,3.1,1.6,5.5,4.4,5.5c1.9,0,3.7-0.7,4.4-1.4
		l2.7,9.9c-1.9,1.7-5.3,3.2-10.6,3.2C261.6,71.5,256.8,66.7,256.8,57.9z"/>
	<polygon class="st0" points="152.7,25.2 145.5,45.8 152.5,65.3 159.9,44.9 	"/>
	<path class="st0" d="M164.1,65.7L152.6,30c-1.3-4.1,1-8.5,5.2-9.8l0,0c4.2-1.3,8.6,1,10,5.1L179.3,61c1.3,4.1-1,8.5-5.2,9.8l0,0
		C169.9,72.1,165.5,69.8,164.1,65.7z"/>
	<path class="st0" d="M175.1,22l9.1,30l9.9-25.5c0.8-2.7-1.2-5.5-4.2-5.5h-14.1C175.3,21,174.9,21.5,175.1,22z"/>
	<path class="st0" d="M137.2,65.7L125.7,30c-1.3-4.1,1-8.5,5.2-9.8l0,0c4.2-1.3,8.6,1,10,5.1L152.4,61c1.3,4.1-1,8.5-5.2,9.8l0,0
		C143,72.1,138.6,69.8,137.2,65.7z"/>
	<rect x="200.5" y="57.9" class="st0" width="12.7" height="12.7"/>
</g>
</svg>
